<?xml version="1.0" encoding="UTF-8" standalone="no"?>
<!-- Created with Inkscape (http://www.inkscape.org/) -->

<svg
   xmlns:dc="http://purl.org/dc/elements/1.1/"
   xmlns:cc="http://creativecommons.org/ns#"
   xmlns:rdf="http://www.w3.org/1999/02/22-rdf-syntax-ns#"
   xmlns:svg="http://www.w3.org/2000/svg"
   xmlns="http://www.w3.org/2000/svg"
   xmlns:sodipodi="http://sodipodi.sourceforge.net/DTD/sodipodi-0.dtd"
   xmlns:inkscape="http://www.inkscape.org/namespaces/inkscape"
   width="150mm"
   height="150mm"
   viewBox="0 0 210 297"
   version="1.1"
   id="svg8"
   inkscape:version="0.92.3 (2405546, 2018-03-11)"
   sodipodi:docname="logo.svg">
  <defs
     id="defs2">
    <inkscape:perspective
       sodipodi:type="inkscape:persp3d"
       inkscape:vp_x="-0.75595145 : 137.16071 : 1"
       inkscape:vp_y="0 : 1000 : 0"
       inkscape:vp_z="169.08171 : 119.63132 : 1"
       inkscape:persp3d-origin="105 : 99 : 1"
       id="perspective3713" />
  </defs>
  <sodipodi:namedview
     id="base"
     pagecolor="#ffffff"
     bordercolor="#666666"
     borderopacity="1.0"
     inkscape:pageopacity="0.0"
     inkscape:pageshadow="2"
     inkscape:zoom="0.35"
     inkscape:cx="-202.85714"
     inkscape:cy="560"
     inkscape:document-units="mm"
     inkscape:current-layer="layer1"
     showgrid="false"
     inkscape:window-width="1920"
     inkscape:window-height="992"
     inkscape:window-x="0"
     inkscape:window-y="27"
     inkscape:window-maximized="1" />
  <metadata
     id="metadata5">
    <rdf:RDF>
      <cc:Work
         rdf:about="">
        <dc:format>image/svg+xml</dc:format>
        <dc:type
           rdf:resource="http://purl.org/dc/dcmitype/StillImage" />
        <dc:title></dc:title>
      </cc:Work>
    </rdf:RDF>
  </metadata>
  <g
     inkscape:label="Layer 1"
     inkscape:groupmode="layer"
     id="layer1">
    <path
       sodipodi:type="spiral"
       style="fill:#00f0f0;fill-rule:evenodd;stroke:#000000;stroke-width:0.1"
       id="path3755"
       sodipodi:cx="106.79887"
       sodipodi:cy="143.23976"
       sodipodi:expansion="1.51"
       sodipodi:revolution="28.1068"
       sodipodi:radius="98.682236"
       sodipodi:argument="-20.511013"
       sodipodi:t0="0"
       d="m 106.79887,143.23976 c -0.004,-0.0401 0.065,-0.019 0.0786,-0.007 0.0788,0.0683 0.0129,0.18862 -0.0583,0.23112 -0.1663,0.0994 -0.36599,-0.0271 -0.4335,-0.18641 -0.11948,-0.28202 0.0856,-0.58417 0.35515,-0.67545 0.41448,-0.14036 0.83671,0.15851 0.95146,0.55667 0.16205,0.56228 -0.24362,1.11952 -0.78651,1.25786 -0.72417,0.18455 -1.4297,-0.33947 -1.59199,-1.04163 -0.20781,-0.89913 0.44504,-1.7651 1.31986,-1.95179 1.0863,-0.23181 2.12396,0.55956 2.33558,1.61947 0.25656,1.28497 -0.6824,2.50489 -1.93908,2.74201 -1.49456,0.28201 -2.90671,-0.81307 -3.16992,-2.27755 -0.30816,-1.71456 0.95114,-3.32844 2.63393,-3.61834 1.9445,-0.33499 3.76919,1.09625 4.08639,3.00739 0.36248,2.184 -1.24811,4.22821 -3.39723,4.5733 -2.43269,0.39064 -4.7048,-1.40641 -5.0784,-3.80278 -0.41943,-2.69027 1.57094,-5.19837 4.22349,-5.60108 2.95646,-0.44885 5.70839,1.74147 6.14081,4.65887 0.47889,3.23099 -1.91781,6.23434 -5.10844,6.69704 -3.51363,0.50955 -6.77578,-2.09976 -7.26936,-5.57178 -0.540792,-3.80416 2.2872,-7.33229 6.04852,-7.85732 4.10239,-0.57263 7.9035,2.47994 8.46054,6.5383 0.60504,4.40812 -2.67787,8.48903 -7.0408,9.07865 -4.72118,0.63803 -9.088569,-2.88085 -9.711315,-7.55571 -0.671574,-5.04141 3.088765,-9.7018 8.082755,-10.35823 5.36866,-0.70567 10.32844,3.30151 11.01908,8.62168 0.74031,5.70278 -3.51897,10.96821 -9.17222,11.6936 -6.04365,0.77549 -11.620867,-3.74106 -12.381535,-9.73415 -0.811193,-6.39115 3.967695,-12.28617 10.307265,-13.08264 6.74514,-0.84742 12.96388,4.19878 13.79666,10.89135 0.88416,7.10552 -4.43423,13.6538 -11.48621,14.5234 -7.47218,0.92141 -14.355701,-4.67398 -15.262618,-12.09166 -0.959166,-7.84502 4.917943,-15.06942 12.707528,-16.01415 8.22394,-0.99741 15.79474,5.16606 16.77778,13.33364 1.03615,8.60886 -5.41827,16.53151 -13.96985,17.55334 -8.99967,1.07538 -17.279549,-5.6745 -18.340653,-14.61599 -1.115077,-9.3963 5.934695,-18.0387 15.271933,-19.13955 9.79867,-1.15526 18.80881,6.19879 19.94988,15.93753 1.19589,10.2067 -6.46675,19.58973 -16.61266,20.77147 -10.620304,1.23701 -20.38131,-6.7385 -21.604195,-17.29717 -1.278566,-11.03943 7.014014,-21.18343 17.990965,-22.44791 11.464,-1.32058 21.99594,7.29322 23.30247,18.69392 1.36305,11.89394 -7.57608,22.81873 -19.40591,24.16774 -12.329202,1.40597 -23.651665,-7.86255 -25.043616,-20.12683 -1.449316,-12.76972 8.152592,-24.49464 20.856596,-25.92996 13.21541,-1.49311 25.34752,8.44616 26.82665,21.59507 1.53733,13.66626 -8.74321,26.21023 -22.34219,27.7336 -14.122173,1.58197 -27.082629,-9.04371 -28.650656,-23.09784 -1.627047,-14.58312 9.347605,-27.96464 23.861926,-29.57775 15.04904,-1.67254 28.85615,9.65488 30.51476,24.63437 1.71845,15.51989 -9.96549,29.75706 -25.41508,31.4616 C 93.431665,173.9167 78.759979,161.87251 77.009115,145.94795 75.197606,129.4718 87.605716,114.36121 104.0101,112.5636 c 16.96147,-1.85865 32.51532,10.91703 34.36007,27.80601 1.90619,17.45154 -11.24066,33.45296 -28.61899,35.34525 -17.946296,1.95414 -34.399552,-11.56747 -36.339788,-29.43984 -2.002476,-18.4457 11.897424,-35.35503 30.268498,-37.34361 18.94972,-2.05121 36.31932,12.2305 38.35663,31.1049 2.10033,19.45829 -12.56667,37.29232 -31.94896,39.37875 -19.971403,2.14985 -38.273991,-12.90589 -40.409931,-32.80061 -2.199745,-20.48901 13.248163,-39.26424 33.659801,-41.45007 21.01107,-2.25003 40.26301,13.59344 42.49911,34.52647 2.30069,21.53754 -13.94171,41.2702 -35.40054,43.55696 -22.068404,2.35172 -42.285779,-14.29294 -44.623568,-36.28197 -2.403128,-22.60361 14.647106,-43.30966 37.170688,-45.69885 23.14313,-2.454912 44.34179,15.00419 46.78275,38.06664 2.50706,23.68694 -15.36416,45.38209 -38.96978,47.8752 C 86.561107,189.7684 64.365575,171.48182 61.819963,147.32879 59.207506,122.54153 77.91267,99.841788 102.61733,97.243306 c 25.34372,-2.6657 48.55149,16.461234 51.2032,41.721714 2.71931,25.90434 -16.83256,49.62392 -42.65303,52.32923 -26.469078,2.77326 -50.704242,-17.20668 -53.463493,-43.59128 -2.827574,-27.03792 17.583562,-51.792387 44.536383,-54.605939 27.61084,-2.882241 52.88832,17.963189 55.75653,45.488319 2.93725,28.18779 -18.34556,53.99197 -46.44703,56.91518 -28.768765,2.99262 -55.103303,-18.73062 -58.081863,-47.41246 -3.048334,-29.35373 19.118387,-56.222261 48.384593,-59.256518 29.94266,-3.10439 57.34878,19.508828 60.43908,49.363358 3.16079,30.53552 -19.90192,58.48284 -50.34872,61.62952 -31.132308,3.21752 -59.624372,-20.29765 -62.827775,-51.34065 -3.274603,-31.73297 20.696006,-60.773329 52.339085,-64.033792 32.33751,-3.332017 61.92968,21.096962 65.24754,53.343992 3.38976,32.94589 -21.50052,63.09337 -54.35535,66.46896 -33.558074,3.44784 -64.264346,-21.90664 -67.697999,-55.37309 -3.506256,-34.17406 22.315328,-65.442582 56.397189,-68.934629 34.79383,-3.564996 66.62803,22.726559 70.1788,57.427609 3.62406,35.41734 -23.14031,67.82064 -58.46431,71.43046 C 76.715573,212.49675 43.739773,185.25671 40.070579,149.30603 36.327404,112.6305 64.045929,79.078821 100.627,75.349928 c 37.31017,-3.803214 71.44108,24.396603 75.23,61.611762 3.86357,37.94847 -24.82033,72.66196 -62.67324,76.51121 -38.590429,3.92426 -73.88981,-25.2465 -77.799724,-63.74082 -3.98525,-39.23601 25.675132,-75.124588 64.814474,-79.095479 39.8852,-4.046562 76.36627,26.106187 80.39845,65.894179 4.10819,40.53797 -26.53966,77.61479 -66.97988,81.70858 C 72.422762,222.40949 34.746929,191.26383 30.591219,150.1678 26.358841,108.31358 58.005021,70.035508 99.760415,65.817568 142.27806,61.522629 181.1616,93.672016 185.44208,136.09031 c 4.3578,43.18459 -28.29747,82.67679 -71.38217,87.02011 -43.855032,4.42099 -83.95908,-28.74283 -88.365562,-72.49745 -4.484464,-44.52895 29.190539,-85.248015 73.618558,-89.717957 45.206334,-4.548249 86.543574,29.640581 91.077284,74.745457 4.61233,45.88717 -30.09295,87.84572 -75.87814,92.44349 -46.57142,4.67673 -89.154408,-30.54761 -93.816547,-77.01654 -4.741415,-47.2591 31.004578,-90.469628 78.160668,-95.196434 47.950159,-4.806402 91.791329,31.46383 96.583099,79.310474 4.87169,48.64461 -31.92535,93.1195 -80.46594,97.97653 C 65.630913,238.09526 20.51924,200.76885 15.596646,151.53095 10.593503,101.48737 48.451841,55.735866 98.390388,50.747419 149.13846,45.678107 195.53284,84.070902 200.58744,134.71344 c 5.13577,51.45589 -33.79401,98.49617 -85.14386,103.6172 C 63.27657,243.53317 15.58739,204.06389 10.399627,152.00342 5.1300595,99.122001 45.141334,50.780919 97.915721,45.526137 119.90045,43.337103 142.3348,48.761792 160.91078,60.716525" />
    <text
       xml:space="preserve"
       style="font-style:normal;font-weight:normal;font-size:10.58333302px;line-height:1.25;font-family:sans-serif;letter-spacing:0px;word-spacing:0px;fill:#000000;fill-opacity:1;stroke:none;stroke-width:0.26458332"
       x="9.8273811"
       y="33.172619"
       id="text3813"><tspan
         sodipodi:role="line"
         id="tspan3811"
         x="9.8273811"
         y="42.536388"
         style="stroke-width:0.26458332" /></text>
    <flowRoot
       xml:space="preserve"
       id="flowRoot3815"
       style="fill:black;fill-opacity:1;stroke:none;font-family:sans-serif;font-style:normal;font-weight:normal;font-size:40px;line-height:1.25;letter-spacing:0px;word-spacing:0px"><flowRegion
         id="flowRegion3817"><rect
           id="rect3819"
           width="634.28571"
           height="274.28571"
           x="42.857143"
           y="85.376831" /></flowRegion><flowPara
         id="flowPara3821"></flowPara></flowRoot>  </g>
</svg>
